<svg width="450" height="450" xmlns:xlink="http://www.w3.org/1999/xlink" xmlns="http://www.w3.org/2000/svg"><defs><filter id="t" x="-.08" y="-.07" width="1.16" height="1.15" color-interpolation-filters="sRGB"><feGaussianBlur stdDeviation=".46"/></filter><filter id="u" x="-.08" y="-.09" width="1.16" height="1.19" color-interpolation-filters="sRGB"><feGaussianBlur stdDeviation=".52"/></filter><filter id="s" x="-.05" y="-.05" width="1.11" height="1.1" color-interpolation-filters="sRGB"><feGaussianBlur stdDeviation=".32"/></filter><filter id="r" x="-.04" y="-.04" width="1.08" height="1.08" color-interpolation-filters="sRGB"><feGaussianBlur stdDeviation=".21"/></filter><filter id="q" x="-.04" y="-.06" width="1.08" height="1.12" color-interpolation-filters="sRGB"><feGaussianBlur stdDeviation=".47"/></filter><filter id="c" x="-.01" y="-.01" width="1.02" height="1.01" color-interpolation-filters="sRGB"><feGaussianBlur stdDeviation=".47"/></filter><filter id="p" x="-.05" y="-.05" width="1.09" height="1.1" color-interpolation-filters="sRGB"><feGaussianBlur stdDeviation=".47"/></filter><filter id="i" x="-.13" y="-.11" width="1.26" height="1.23" color-interpolation-filters="sRGB"><feGaussianBlur stdDeviation=".47"/></filter><filter id="d" x="-.37" y="-.1" width="1.74" height="1.2" color-interpolation-filters="sRGB"><feGaussianBlur stdDeviation=".47"/></filter><filter id="e" x="-.08" y="-.08" width="1.17" height="1.16" color-interpolation-filters="sRGB"><feGaussianBlur stdDeviation=".47"/></filter><filter id="h" x="-.29" y="-.13" width="1.47" height="1.38" color-interpolation-filters="sRGB"><feGaussianBlur stdDeviation=".47"/></filter><filter id="g" x="-.16" y="-.16" width="1.32" height="1.31" color-interpolation-filters="sRGB"><feGaussianBlur stdDeviation=".47"/></filter><filter id="m" x="-.06" y="-.07" width="1.12" height="1.14" color-interpolation-filters="sRGB"><feGaussianBlur stdDeviation=".47"/></filter><filter id="o" x="-4.18" y="-.12" width="9.35" height="1.23" color-interpolation-filters="sRGB"><feGaussianBlur stdDeviation=".47"/></filter><filter id="n" x="-.12" y="-.56" width="1.24" height="2.11" color-interpolation-filters="sRGB"><feGaussianBlur stdDeviation=".47"/></filter><filter id="f" x="-.03" y="-.04" width="1.05" height="1.07" color-interpolation-filters="sRGB"><feGaussianBlur stdDeviation=".47"/></filter><filter id="j" x="-.1" y="-.12" width="1.2" height="1.25" color-interpolation-filters="sRGB"><feGaussianBlur stdDeviation=".47"/></filter><filter id="k" x="-.17" y="-.09" width="1.34" height="1.18" color-interpolation-filters="sRGB"><feGaussianBlur stdDeviation=".47"/></filter><filter id="l" x="-.04" y="-.04" width="1.07" height="1.07" color-interpolation-filters="sRGB"><feGaussianBlur stdDeviation=".47"/></filter><filter id="y" x="-.56" y="-.15" width="2.12" height="1.3" color-interpolation-filters="sRGB"><feGaussianBlur stdDeviation=".47"/></filter><filter id="x" x="-.32" y="-.18" width="1.64" height="1.36" color-interpolation-filters="sRGB"><feGaussianBlur stdDeviation=".47"/></filter><filter id="w" x="-.29" y="-.24" width="1.58" height="1.47" color-interpolation-filters="sRGB"><feGaussianBlur stdDeviation=".47"/></filter><filter id="v" x="-.29" y="-.15" width="1.57" height="1.31" color-interpolation-filters="sRGB"><feGaussianBlur stdDeviation=".47"/></filter><filter id="z" x="-.06" y="-.07" width="1.12" height="1.13" color-interpolation-filters="sRGB"><feGaussianBlur stdDeviation=".44"/></filter><filter id="A" x="-.11" y="-.35" width="1.21" height="1.7" color-interpolation-filters="sRGB"><feGaussianBlur stdDeviation=".44"/></filter><filter id="B" x="-1.16" y="-.07" width="3.31" height="1.14" color-interpolation-filters="sRGB"><feGaussianBlur stdDeviation=".15"/></filter><linearGradient id="a"><stop offset="0" stop-color="#ed0133"/><stop offset="1" stop-color="#ef0035" stop-opacity=".5"/></linearGradient><linearGradient xlink:href="#a" id="b" x1="85.48" y1="303.79" x2="399.85" y2="303.79" gradientUnits="userSpaceOnUse" gradientTransform="translate(-24.67 -103.66)"/></defs><path d="M119.2 92.52c6.84-41.3 13.24-64.57 62.27-38 13-31.9 26.93-27.64 39.24-4.98 7.24-2.2 14.55-4.52 13.7 6.23 15.02-43.55 38.78-24.5 37.99 1.25 43.52-15.83 45.3 2.26 36.12 29.27 44.42-7.9 54.8 2.49 31.14 31.14 17.5 10.08 69.2 25.55-8.72 63.52 17.8 17.95 74.39 48.12 4.36 56.67 18.12 6.27 72.84 49.35-2.5 51.7 2.45 24 17.37 56.77-22.41 51.06-10.6-1.61-15.68-2.55-20.55 11.21-9.37 26.42-36.62 20.27-61.04 9.96-10.95-4.62-16.77-18.96-36.12-1.24-12.96 11.86-66.65 12.98-58.54-26.16 2.12-10.21 19.83-14.16-24.91-21.17-30.24-4.74-46.98-27.3-8.1-49.82-44.05-15.41-45.02-43.59-26.15-49.2 36.84-10.97-43.42-44.31 9.96-58.54 14.3-3.82 24.22-.84 8.72-31.77-9.72-37.6 25.21-31.18 25.53-31.13z" fill="url(#b)" stroke="#000" stroke-width="2.8" stroke-linecap="round" stroke-linejoin="round" filter="url(#c)"/><path style="mix-blend-mode:normal" d="M65.1 237.25c-5.38 8.5-5.16 17.01-6.78 25.52" fill="none" stroke="#000" stroke-width="2.8" stroke-linecap="round" filter="url(#d)"/><path style="mix-blend-mode:normal" d="M368.93 228.28c7.4 7.13 42.97 10.4 25.4-26.45" fill="none" stroke="#000" stroke-width="2.8" stroke-linecap="round" filter="url(#e)"/><path style="mix-blend-mode:normal" d="M174 200.26c3.52 60.07 57.77 80 97.77 61.65v-.62" fill="none" stroke="#000" stroke-width="2.8" stroke-linecap="round" filter="url(#f)"/><path style="mix-blend-mode:normal" d="M390.33 192.22c2.01-5.46 6.36-7.53 12.48-7.01 3 1.93 4.39 4.55-.42 9.82l-4.38 4.24c-2.9 3.36-4.37 1.51-6.2 1.02-3.24-3.51-1.74-5.6-1.48-8.07z" fill="#4e016d" stroke="#000" stroke-width="2.8" stroke-linecap="round" stroke-linejoin="round" filter="url(#g)"/><path style="mix-blend-mode:normal" d="M392.57 188.3c.14 4.94-.3 10.43 7.44 8.13" fill="none" stroke="#000" stroke-width="2" filter="url(#h)"/><path style="mix-blend-mode:normal" d="M51.8 274.3c2.52 19.38 9.68 9.12 11.5 1.68 1.8-7.36-1.73-13.49-4.21-12.77-8.94 2.6-9.18 3.42-11.64 6.32-6.91 8.12-.27 6.35 4.34 4.77z" fill="#4e016d" stroke="#000" stroke-width="2.8" stroke-linecap="round" stroke-linejoin="round" filter="url(#i)"/><path d="M175.11 214.4a118.52 118.52 0 0 0-22.02 20.2c7.64-1.05 15.59-2.3 25.81-5.2z" fill="#fff" fill-opacity=".8" stroke="#000" stroke-width="2.8" stroke-linejoin="round" filter="url(#j)"/><path d="M248.63 268.26c1.1 12.44 2.65 17.67 4.77 25.68 3.03-9.6 5.79-19.25 10.24-28.48z" fill="#fff" fill-opacity=".8" stroke="#000" stroke-width="2.8" stroke-linecap="round" stroke-linejoin="round" filter="url(#k)"/><path d="M221.27 182.54c4.68-.38 10.58-6.27 16 13.2 3.5 12.61 8.97 12.47 16.41 13.88 5.25 1 3.17 9.68 7.16 12.2 3.1 1.97 10.35 4.85 8 8.85-2.09 3.51-9.19-5.83-11.93-2.81-2.83 3.1 9.94 8.93 4.63 12.77-2.16 1.55-11.2-9.3-12.07-8.14-15.35 2.73-17.7-4.39-19.5-11.93-4.42-11.43-10.76-14.58-17.4-16.41" fill="#c90129" fill-opacity=".94" stroke="#000" stroke-width="2" stroke-linecap="round" stroke-linejoin="round" filter="url(#l)"/><path style="mix-blend-mode:normal" d="M158.14 405.05c-5.27-.89-20.35.12-16.84 4.77 6.05 8.02 27.27 7.55 40.97 1.69-.44-10.76-2.8-15.73-4.63-22.31 2.36.2 4.52-8.56-9.52-8.76-12-.16-11.87 7.52-10.96 6.23-1.09 2.84-.15 10.4.98 18.38z" fill="#0809b9" fill-opacity=".89" stroke="#000" stroke-width="2.8" stroke-linejoin="round" filter="url(#m)"/><path style="mix-blend-mode:normal" d="M157.44 386.67c6.13 4.65 13.6 6.29 20.76 2.1" fill="none" stroke="#000" stroke-width="2.8" stroke-linecap="round" stroke-linejoin="round" filter="url(#n)"/><path style="mix-blend-mode:normal" d="M167.68 368.44c-.74 7.57-.03 14.66.28 21.88" fill="none" stroke="#000" stroke-width="2.8" stroke-linecap="round" stroke-linejoin="round" filter="url(#o)"/><path style="mix-blend-mode:normal" d="M156.74 120.4c9.69-8.53 17.79-18.05 34.23-22.31-1.33-7.18-3-14.56-3.23-20.63-5.27 6.9-5.44 11.76-9.12 4.77.22 7.74-3.2 5.48-7.43.98 2 8-.75 8.85-7.72 3.37.15 4.87 2.2 13.62-5.75 4.77 2.9 11.46-.52 10.81-6.18 5.9 2.2 5.15 3.4 9.56-6.17 5.89a432.4 432.4 0 0 1 11.37 17.25z" fill="#af018a" fill-opacity=".8" stroke="#000" stroke-width="2" stroke-linecap="round" stroke-linejoin="round" filter="url(#p)"/><path style="mix-blend-mode:normal" d="M255.78 107.06c12.87.74 25.05 9 37.18 17.82 4.89-5.27 10.17-10.42 12.91-16.41-2.85 1.21-6.49 4-5.05-3.37-4.48 3.6-5.44 2-5.05-3.37-3.22 2.3-5.9 6.96-6.6-3.36-6.14 6.3-7.91 3.52-8.83-2.1-7.97 7.87-8.9 2.68-9.12-3.8-3.24 4.64-5.32 3.32-6.32-3.64-3.99 6.31-8.04 12.65-9.12 18.23z" fill="#b70199" fill-opacity=".8" stroke="#000" stroke-width="2" stroke-linecap="round" stroke-linejoin="round" filter="url(#q)"/><ellipse style="mix-blend-mode:normal" cx="189.85" cy="147.4" rx="17.68" ry="18.31" fill="#fff" stroke="#000" stroke-width="2" stroke-linecap="round" stroke-linejoin="round" filter="url(#r)"/><ellipse style="mix-blend-mode:normal" ry="17.76" rx="16.2" cy="-20.98" cx="380.99" transform="rotate(45 112.8 -81.6)" fill="#fff" stroke="#000" stroke-width="2" stroke-linecap="round" stroke-linejoin="round" filter="url(#s)"/><ellipse style="mix-blend-mode:normal" cx="258.31" cy="151.12" rx="6.73" ry="7.44" filter="url(#t)"/><ellipse style="mix-blend-mode:normal" cx="188.16" cy="148.09" rx="7.58" ry="6.59" filter="url(#u)"/><path style="mix-blend-mode:normal" d="M231.93 184.5c-1.6 7.4-3.96 12.35-7.43 13.76" fill="none" stroke="#000" stroke-width="2" stroke-linecap="round" stroke-linejoin="round" filter="url(#v)"/><path style="mix-blend-mode:normal" d="M237.55 198.26c-2.28 4.49-4.27 7.1-7.3 8.98" fill="none" stroke="#000" stroke-width="2" stroke-linecap="round" stroke-linejoin="round" filter="url(#w)"/><path style="mix-blend-mode:normal" d="M242.6 206.67c-1.5 4.44-2.6 9.15-6.6 11.79" fill="none" stroke="#000" stroke-width="2" stroke-linecap="round" stroke-linejoin="round" filter="url(#x)"/><path style="mix-blend-mode:normal" d="M251.86 209.34c-.27 4.93-.6 9.84-3.8 14.03" fill="none" stroke="#000" stroke-width="2" stroke-linecap="round" stroke-linejoin="round" filter="url(#y)"/><path d="M243.44 390.38c-1.7 7.91-.95 6.02-.66 25.12 12.41 8.73 24.2 3.36 36.05-.87 10.62-5.94 2.73-10.03-1.96-12.24-2.91-1.37-3.68-1.6-9.62-.87l.44-11.8c.12-3.36-2.31-4.92-13.55-6.12-7.62 1.45-10.02 3.57-10.7 6.78z" fill="#0608c0" fill-opacity=".85" stroke="#000" stroke-width="2.8" stroke-linecap="round" stroke-linejoin="round" filter="url(#z)"/><path d="M243.87 390.81c10.12 12.1 20.29 5.59 23.16 1.75" fill="none" stroke="#000" stroke-width="2.8" stroke-linecap="round" stroke-linejoin="round" filter="url(#A)"/><path d="M258.73 370.5l-1.53 25.78" fill="none" stroke="#000" stroke-width="2.8" stroke-linecap="round" stroke-linejoin="round" filter="url(#B)"/></svg>